<?xml version="1.0" standalone="no"?>
<!DOCTYPE svg PUBLIC "-//W3C//DTD SVG 20010904//EN"
 "http://www.w3.org/TR/2001/REC-SVG-20010904/DTD/svg10.dtd">
<svg version="1.0" xmlns="http://www.w3.org/2000/svg"
 width="128.000000pt" height="128.000000pt" viewBox="0 0 128.000000 128.000000"
 preserveAspectRatio="xMidYMid meet">
<metadata>
Created by potrace 1.14, written by Peter Selinger 2001-2017
</metadata>
<g transform="translate(0.000000,128.000000) scale(0.100000,-0.100000)"
fill="#000000" stroke="none">
<path d="M450 1261 c-5 -11 -25 -29 -45 -41 -19 -12 -34 -24 -34 -28 4 -26 -4
-32 -41 -32 -36 0 -40 -2 -40 -25 0 -25 2 -26 51 -24 36 2 53 7 57 18 5 14 31
41 91 95 20 18 21 18 40 -5 31 -36 27 -59 -9 -59 -16 0 -30 -5 -30 -10 0 -6
-11 -19 -24 -31 -27 -23 -25 -54 5 -70 11 -5 19 -19 19 -29 0 -11 7 -20 15
-20 9 0 18 -7 21 -15 3 -8 14 -17 25 -20 14 -5 19 -16 19 -40 0 -28 -6 -37
-30 -50 -16 -9 -30 -22 -30 -30 0 -8 -4 -15 -8 -15 -16 0 -90 61 -116 95 -26
33 -66 48 -66 24 0 -13 -61 -91 -99 -126 -15 -15 -36 -23 -57 -23 -26 0 -34
-4 -34 -18 0 -16 9 -19 49 -21 56 -2 65 5 159 129 2 3 35 -29 73 -70 56 -61
69 -81 69 -107 0 -40 -22 -44 -38 -7 -7 14 -16 23 -21 20 -9 -6 -61 51 -61 66
0 17 -29 7 -35 -12 -3 -11 -12 -20 -20 -20 -7 0 -26 -19 -41 -43 -28 -43 -78
-77 -114 -77 -23 0 -32 -13 -24 -35 7 -18 62 -19 99 -2 27 13 66 58 59 68 -3
5 5 9 16 9 13 0 24 8 27 20 3 11 9 20 13 20 14 0 47 -35 54 -57 7 -23 19 -26
92 -26 24 1 33 -5 40 -26 9 -24 4 -32 -76 -112 -47 -47 -105 -107 -129 -132
-24 -26 -50 -47 -58 -47 -20 0 -33 -43 -24 -81 4 -19 7 -52 6 -74 -1 -22 -3
-53 -4 -68 0 -16 -5 -26 -9 -23 -4 2 -14 1 -21 -4 -26 -15 0 -29 52 -27 39 1
52 6 52 17 0 9 -7 14 -17 12 -15 -2 -18 5 -18 41 0 36 4 46 20 50 14 4 20 14
21 34 3 111 2 107 39 118 19 5 45 16 58 23 22 13 22 12 23 -55 3 -159 8 -177
61 -220 39 -32 42 -33 142 -33 97 0 105 2 139 27 58 45 64 63 66 221 1 72 1
73 24 60 12 -7 38 -17 57 -23 l35 -11 3 -72 c3 -64 5 -72 22 -72 17 0 20 -7
20 -45 0 -25 -3 -44 -7 -44 -20 3 -33 -2 -33 -14 0 -10 16 -13 58 -13 44 1 57
4 57 16 0 8 -7 15 -15 15 -24 0 -32 100 -15 192 3 22 -17 53 -34 53 -5 0 -28
21 -52 47 -24 26 -82 85 -129 132 -79 80 -85 88 -76 112 8 23 14 26 45 24 45
-3 87 9 84 23 -2 6 12 25 29 43 29 28 33 30 39 13 3 -11 5 -22 2 -26 -2 -5 8
-8 22 -8 14 0 24 -4 21 -9 -8 -13 35 -58 68 -71 16 -6 44 -9 63 -8 28 2 33 6
31 22 -2 12 -12 22 -23 24 -32 5 -95 34 -95 44 0 15 -54 78 -67 78 -6 0 -15 9
-18 20 -7 22 -35 28 -35 7 0 -13 -56 -67 -70 -67 -4 0 -10 -9 -13 -21 -8 -30
-31 -18 -35 17 -2 24 10 42 67 104 38 41 71 73 73 70 107 -136 102 -131 159
-129 40 2 49 6 49 21 0 14 -8 18 -32 18 -22 0 -43 10 -63 28 -39 34 -95 107
-95 121 0 24 -40 9 -66 -24 -25 -34 -100 -95 -115 -95 -4 0 -10 8 -14 18 -3
11 -17 24 -30 30 -32 15 -36 77 -6 87 11 3 22 12 25 20 3 8 12 15 20 15 7 0
17 11 20 25 4 14 11 25 16 25 5 0 14 9 20 20 8 16 6 24 -12 42 -13 13 -23 28
-23 33 0 6 -15 11 -32 13 -39 4 -43 24 -12 61 19 23 20 23 40 5 63 -56 86 -81
92 -95 4 -12 19 -17 56 -17 48 -2 51 0 51 24 0 20 -5 25 -22 24 -45 -4 -56 0
-62 23 -3 12 -19 30 -36 40 -16 10 -35 27 -40 38 -9 15 -21 19 -65 19 -46 0
-54 -3 -57 -20 -2 -12 -7 -20 -12 -20 -14 2 -26 -22 -26 -52 0 -25 -4 -28 -34
-28 -33 0 -35 2 -38 38 -2 25 -8 37 -18 37 -8 0 -16 10 -18 23 -3 20 -9 22
-57 22 -43 0 -56 -4 -65 -19z"/>
</g>
</svg>
